<?xml version="1.0" encoding="UTF-8" standalone="no"?>
<svg
   height="1080"
   id="svg1"
   inkscape:version="1.3.2 (091e20e, 2023-11-25, custom)"
   sodipodi:docname="original4.svg"
   version="1.1"
   width="1920"
   xmlns:inkscape="http://www.inkscape.org/namespaces/inkscape"
   xmlns:sodipodi="http://sodipodi.sourceforge.net/DTD/sodipodi-0.dtd"
   xmlns:xlink="http://www.w3.org/1999/xlink"
   xmlns="http://www.w3.org/2000/svg"
   xmlns:svg="http://www.w3.org/2000/svg">
  <defs
     id="defs1">
    <linearGradient
       id="linearGradient20"
       inkscape:collect="always">
      <stop
         style="stop-color:#00a38c;stop-opacity:1;"
         offset="0.47008547"
         id="stop20" />
      <stop
         style="stop-color:#ffffff;stop-opacity:1;"
         offset="1"
         id="stop21" />
    </linearGradient>
    <linearGradient
       inkscape:collect="always"
       xlink:href="#linearGradient20"
       id="linearGradient21"
       x1="880"
       y1="1080"
       x2="860"
       y2="-560"
       gradientUnits="userSpaceOnUse" />
    <filter
       inkscape:collect="always"
       style="color-interpolation-filters:sRGB"
       id="filter1"
       x="-0.0076911234"
       y="-0.052757118"
       width="1.0153822"
       height="1.1055142">
      <feGaussianBlur
         inkscape:collect="always"
         stdDeviation="6.1528986"
         id="feGaussianBlur1" />
    </filter>
    <filter
       inkscape:collect="always"
       style="color-interpolation-filters:sRGB"
       id="filter2"
       x="-0.0058674031"
       y="-0.03706666"
       width="1.0117348"
       height="1.0741333">
      <feGaussianBlur
         inkscape:collect="always"
         stdDeviation="4.6939225"
         id="feGaussianBlur2" />
    </filter>
    <filter
       inkscape:collect="always"
       style="color-interpolation-filters:sRGB"
       id="filter3"
       x="-0.011501534"
       y="-0.072593897"
       width="1.0230031"
       height="1.1451878">
      <feGaussianBlur
         inkscape:collect="always"
         stdDeviation="9.2012268"
         id="feGaussianBlur3" />
    </filter>
  </defs>
  <sodipodi:namedview
     bordercolor="#000000"
     borderopacity="0.25"
     id="namedview1"
     inkscape:current-layer="svg1"
     inkscape:cx="629.97485"
     inkscape:cy="738.64551"
     inkscape:deskcolor="#d1d1d1"
     inkscape:pagecheckerboard="0"
     inkscape:pageopacity="0.0"
     inkscape:showpageshadow="2"
     inkscape:window-height="1514"
     inkscape:window-maximized="0"
     inkscape:window-width="2807"
     inkscape:window-x="754"
     inkscape:window-y="73"
     inkscape:zoom="0.63494598"
     pagecolor="#ffffff"
     showgrid="true">
    <inkscape:grid
       color="#0099e5"
       dotted="false"
       empcolor="#0099e5"
       empopacity="0.30196078"
       empspacing="5"
       gridanglex="30"
       gridanglez="30"
       id="grid1"
       opacity="0.14901961"
       originx="0"
       originy="0"
       spacingx="1"
       spacingy="1"
       units="px"
       visible="true" />
  </sodipodi:namedview>
  <rect
     height="1080"
     id="rect1"
     style="display:inline;fill:url(#linearGradient21);fill-opacity:1;stroke-width:30"
     width="1920"
     x="0"
     y="0" />
  <path
     d="M 0,818.96731 C 144.83127,744.62031 347.33931,640 456.75802,641.19555 c 125.91197,7.02468 241.62898,63.86199 362.03562,96.06552 279.15466,88.1916 569.98086,180.55706 866.41956,148.24135 83.0214,-11.34137 165.5377,-37.21417 234.7868,-85.43436 V 1080 H 0 Z"
     id="path1"
     inkscape:label="path1"
     sodipodi:nodetypes="cccccccc"
     style="display:none;fill:#2c5364;fill-opacity:1;stroke-width:30" />
  <path
     d="m 1920,790.0001 c -220,0 -580,124.99995 -1000,165 -380,40 -860,-220 -920,-180 v 300 h 1920 z"
     id="path1-2-4-5-5"
     sodipodi:nodetypes="cccccc"
     style="display:inline;fill:#356f6a;fill-opacity:1;stroke-width:30;filter:url(#filter3);opacity:0.61408882" />
  <path
     d="M 1920,795 C 1700,795 1340,919.99995 920,960 540,1000 60,740 0,780 v 300 h 1920 z"
     id="path1-2-4-5"
     sodipodi:nodetypes="cccccc"
     style="display:inline;fill:#73f0e5;fill-opacity:1;stroke-width:30" />
  <path
     d="m 1920,797.53401 c -220,0 -580,139.93194 -1000,179.93194 -380,39.99995 -860,-240 -920,-200 V 1077.466 h 1920 z"
     id="path1-2-4-6"
     sodipodi:nodetypes="cccccc"
     style="display:inline;fill:#8e8e8e;fill-opacity:1;stroke-width:30;filter:url(#filter2);opacity:0.61255743" />
  <path
     d="M 1920,800.06806 C 1700,800.06806 1340,940 920,980 540,1020 60,740 0,780 v 300 h 1920 z"
     id="path1-2-4"
     sodipodi:nodetypes="cccccc"
     style="display:inline;fill:#ffffff;fill-opacity:1;stroke-width:30" />
  <path
     d="M 1920,805 C 1745,800 1320,1015.0001 879.99998,1015.0001 419.99998,1035.0001 65,755 0,800 l -1.7881394e-5,275.0001 H 1920 Z"
     id="path1-2-5"
     sodipodi:nodetypes="cccccc"
     style="display:inline;opacity:0.468606;fill:#1e3844;fill-opacity:1;stroke-width:30;filter:url(#filter1)" />
  <path
     d="m 1920,805.57067 c -175,-5 -600,215.00003 -1040,215.00003 C 420,1040.5707 83.24198,761.12749 0,800 v 280.5707 h 1920 z"
     id="path1-2"
     sodipodi:nodetypes="cccccc"
     style="fill:#2c5364;fill-opacity:1;stroke-width:30" />
</svg>
