<?xml version="1.0" encoding="UTF-8" standalone="no"?>
<svg
   height="1080"
   id="svg1"
   inkscape:version="1.3.2 (091e20e, 2023-11-25, custom)"
   sodipodi:docname="original-1.svg"
   version="1.1"
   width="1920"
   xmlns:inkscape="http://www.inkscape.org/namespaces/inkscape"
   xmlns:sodipodi="http://sodipodi.sourceforge.net/DTD/sodipodi-0.dtd"
   xmlns:xlink="http://www.w3.org/1999/xlink"
   xmlns="http://www.w3.org/2000/svg"
   xmlns:svg="http://www.w3.org/2000/svg">
  <defs
     id="defs1">
    <linearGradient
       id="linearGradient20"
       inkscape:collect="always">
      <stop
         style="stop-color:#402014;stop-opacity:1;"
         offset="0.49145299"
         id="stop20" />
      <stop
         style="stop-color:#ffffff;stop-opacity:1;"
         offset="1"
         id="stop21" />
    </linearGradient>
    <filter
       inkscape:collect="always"
       style="color-interpolation-filters:sRGB"
       id="filter20"
       x="-0.0053783248"
       y="-0.036079913"
       width="1.0107566"
       height="1.0721598">
      <feGaussianBlur
         inkscape:collect="always"
         stdDeviation="4.3474795"
         id="feGaussianBlur20" />
    </filter>
    <linearGradient
       inkscape:collect="always"
       xlink:href="#linearGradient20"
       id="linearGradient21"
       x1="880"
       y1="1080"
       x2="860"
       y2="-560"
       gradientUnits="userSpaceOnUse" />
    <filter
       inkscape:collect="always"
       style="color-interpolation-filters:sRGB"
       id="filter1"
       x="-0.0023534805"
       y="-0.014867851"
       width="1.004707"
       height="1.0297357">
      <feGaussianBlur
         inkscape:collect="always"
         stdDeviation="1.8827844"
         id="feGaussianBlur1" />
    </filter>
    <filter
       inkscape:collect="always"
       style="color-interpolation-filters:sRGB"
       id="filter2"
       x="-0.019723435"
       y="-0.12448783"
       width="1.0394469"
       height="1.2489757">
      <feGaussianBlur
         inkscape:collect="always"
         stdDeviation="15.778748"
         id="feGaussianBlur2" />
    </filter>
  </defs>
  <sodipodi:namedview
     bordercolor="#000000"
     borderopacity="0.25"
     id="namedview1"
     inkscape:current-layer="svg1"
     inkscape:cx="835.23654"
     inkscape:cy="623.64329"
     inkscape:deskcolor="#d1d1d1"
     inkscape:pagecheckerboard="0"
     inkscape:pageopacity="0.0"
     inkscape:showpageshadow="2"
     inkscape:window-height="1514"
     inkscape:window-maximized="0"
     inkscape:window-width="2807"
     inkscape:window-x="608"
     inkscape:window-y="245"
     inkscape:zoom="0.44897461"
     pagecolor="#ffffff"
     showgrid="true">
    <inkscape:grid
       color="#0099e5"
       dotted="false"
       empcolor="#0099e5"
       empopacity="0.30196078"
       empspacing="5"
       gridanglex="30"
       gridanglez="30"
       id="grid1"
       opacity="0.14901961"
       originx="0"
       originy="0"
       spacingx="1"
       spacingy="1"
       units="px"
       visible="true" />
  </sodipodi:namedview>
  <rect
     height="1080"
     id="rect1"
     style="display:inline;fill:url(#linearGradient21);fill-opacity:1;stroke-width:30"
     width="1920"
     x="0"
     y="0" />
  <path
     d="M 0,818.96731 C 144.83127,744.62031 347.33931,640 456.75802,641.19555 c 125.91197,7.02468 241.62898,63.86199 362.03562,96.06552 279.15466,88.1916 569.98086,180.55706 866.41956,148.24135 83.0214,-11.34137 165.5377,-37.21417 234.7868,-85.43436 V 1080 H 0 Z"
     id="path1"
     inkscape:label="path1"
     sodipodi:nodetypes="cccccccc"
     style="display:none;fill:#2c5364;fill-opacity:1;stroke-width:30" />
  <path
     d="M 1920,790 C 1700,790 1340,914.99995 920.00002,955 540.00002,995 60.000017,735 1.66e-5,775 v 300 H 1920 Z"
     id="path1-2-4-5-6"
     sodipodi:nodetypes="cccccc"
     style="display:inline;fill:#191712;fill-opacity:1;stroke-width:30;opacity:0.91730475;filter:url(#filter2)" />
  <path
     d="M 1920,795 C 1700,795 1340,919.99995 920,960 540,1000 60,740 0,780 v 300 h 1920 z"
     id="path1-2-4-5"
     sodipodi:nodetypes="cccccc"
     style="display:inline;fill:#ffe5b4;fill-opacity:1;stroke-width:30" />
  <path
     d="m 1920,797.534 c -220,0 -580,139.932 -1000,179.932 -380,40 -860,-240 -920,-200 v 300 h 1920 z"
     id="path1-2-4-1"
     sodipodi:nodetypes="cccccc"
     style="display:inline;fill:#7b5932;fill-opacity:1;stroke-width:30;opacity:0.62633997;filter:url(#filter1)" />
  <path
     d="M 1920,800.06806 C 1700,800.06806 1340,940 920,980 540,1020 60,740 0,780 v 300 h 1920 z"
     id="path1-2-4"
     sodipodi:nodetypes="cccccc"
     style="display:inline;fill:#dc9f59;fill-opacity:1;stroke-width:30" />
  <path
     d="m 1923.7003,806.32568 c -175,-5 -610,201.12642 -1050.00005,216.69712 -460,-5.5707 -804.999999,-265.00004 -883.0880899,-225.00004 L -16.299749,1083.0228 H 1923.7003 Z"
     id="path19"
     sodipodi:nodetypes="cccccc"
     style="opacity:0.29709;mix-blend-mode:normal;fill:#251308;fill-opacity:1;stroke-width:30;filter:url(#filter20)" />
  <path
     d="m 1920,805.57067 c -175,-5 -600,215.00003 -1040,215.00003 C 420,1040.5707 83.24198,761.12749 0,800 v 280.5707 h 1920 z"
     id="path1-2"
     sodipodi:nodetypes="cccccc"
     style="display:inline;fill:#7a3e1c;fill-opacity:1;stroke-width:30" />
</svg>
