<?xml version="1.0" encoding="UTF-8" standalone="no"?>
<svg
   width="24"
   height="24"
   viewBox="0 0 24 24"
   fill="none"
   version="1.1"
   id="svg4"
   sodipodi:docname="cassettleos-white.svg"
   xml:space="preserve"
   inkscape:version="1.3.2 (091e20e, 2023-11-25, custom)"
   xmlns:inkscape="http://www.inkscape.org/namespaces/inkscape"
   xmlns:sodipodi="http://sodipodi.sourceforge.net/DTD/sodipodi-0.dtd"
   xmlns:xlink="http://www.w3.org/1999/xlink"
   xmlns="http://www.w3.org/2000/svg"
   xmlns:svg="http://www.w3.org/2000/svg"><sodipodi:namedview
     id="namedview4"
     pagecolor="#ffffff"
     bordercolor="#000000"
     borderopacity="0.25"
     inkscape:showpageshadow="2"
     inkscape:pageopacity="0.0"
     inkscape:pagecheckerboard="0"
     inkscape:deskcolor="#d1d1d1"
     inkscape:zoom="9.671875"
     inkscape:cx="5.634895"
     inkscape:cy="23.418417"
     inkscape:window-width="1966"
     inkscape:window-height="891"
     inkscape:window-x="1370"
     inkscape:window-y="422"
     inkscape:window-maximized="0"
     inkscape:current-layer="svg4" /><g
     clip-path="url(#clip0_611_1120)"
     id="g3"><rect
       width="24"
       height="24"
       rx="5"
       fill="url(#paint0_linear_611_1120)"
       id="rect1"
       x="0"
       y="0"
       style="display:inline" /></g><defs
     id="defs4"><linearGradient
       id="paint0_linear_611_1120"
       x1="12"
       y1="1.74621e-09"
       x2="12"
       y2="24"
       gradientUnits="userSpaceOnUse"><stop
         stop-color="#F7FAFC"
         id="stop3" /><stop
         offset="1"
         stop-color="#EDEFF2"
         id="stop4" /></linearGradient><clipPath
       id="clip0_611_1120"><rect
         width="24"
         height="24"
         fill="white"
         id="rect4" /></clipPath><linearGradient
       id="linearGradient4"
       inkscape:collect="always"><stop
         style="stop-color:#17c9bc;stop-opacity:1;"
         offset="0.3931624"
         id="stop5" /><stop
         style="stop-color:#2c5364;stop-opacity:1;"
         offset="1"
         id="stop6" /></linearGradient><linearGradient
       inkscape:collect="always"
       xlink:href="#linearGradient4"
       id="linearGradient2"
       x1="5.4378028"
       y1="106.51696"
       x2="126.98869"
       y2="17.592892"
       gradientUnits="userSpaceOnUse" /></defs><g
     inkscape:label="Layer 1"
     id="layer1"
     transform="matrix(0.16861309,0,0,0.16861309,0.84694647,0.8469468)"><rect
       style="display:none;fill:#000000;fill-opacity:1;stroke-width:0.264583"
       id="rect2"
       width="164.41357"
       height="170.81099"
       x="-6.7172856"
       y="-11.515347" /><path
       style="fill:url(#linearGradient2);fill-opacity:1;stroke:none;stroke-width:0.230035;stroke-opacity:1"
       d="m 102.75272,33.325286 c -3.21251,2.989968 -7.945431,6.754301 -13.112151,10.976735 -2.293428,1.094536 -5.308572,0.05779 -7.215263,-1.043032 -17.765498,-10.256916 -35.180231,-0.562271 -39.83923,14.39217 -4.508309,14.470756 4.507307,30.432667 17.255495,33.12958 -13.187516,5.720655 -30.753053,6.627818 -35.247,6.103277 -3.771007,-5.368458 -6.601337,-11.865726 -8.879788,-19.02525 -4.182061,3.739269 -20.2882037,17.713873 7.299248,21.689819 9.056394,1.175325 35.006494,-1.966578 58.536381,-11.644913 18.276928,-7.517684 35.146068,-18.005678 42.552868,-28.500276 2.46049,-4.937081 -0.8283,-6.817534 -9.2123,-6.691826 -1.69979,6.343713 -11.14039,4.979151 -11.51171,-1.285573 -0.0552,-6.470979 9.1333,-8.371054 11.5969,-2.20615 11.5669,-1.06783 19.3726,2.717475 14.23427,12.747546 -7.87317,13.636729 -23.67794,21.406338 -33.75696,26.654753 l 6.79691,7.102213 c 2.53819,2.423192 4.80992,4.922121 -0.51827,9.581021 C 77.773815,125.8037 49.644943,122.31524 31.142293,105.21568 14.47275,106.18473 2.183846,99.963135 1.5117261,92.305914 0.85440732,84.817294 8.2240522,78.019823 15.172105,73.03701 13.055174,49.545374 21.979925,34.925277 33.733493,24.897161 50.319132,10.587414 77.61345,7.6253028 99.03808,24.023297 c 3.91234,3.092589 6.55456,5.442792 3.71464,9.301989 z"
       id="path1-0"
       sodipodi:nodetypes="ccssccccscccccccccscccc" /></g></svg>
